# xmcd
#
# Track frame offsets:
# 150
# 10345
# 25115
# 39582
# 54300
# 66525
# 81092
# 94105
# 107472
# 131545
# 145765
# 158840
# 169487
# 183222
# 196467
# 211150
# 223617
# 248302
# 260152
# 275985
# 288495
# 311895
# 326155
#
# Disc length: 4568 seconds
#
#
# Revision: 0
# Processed by: cddbd v1.5.2PL0 Copyright (c) Steve Scherf et al.
# Submitted via: FreeRIP 2.951 
#
DISCID=5911d617
DTITLE=Seleccion Musical
DYEAR=1900
DGENRE=Bolero
TTITLE0=Mujer
TTITLE1=Asi
TTITLE2=Dime que si
TTITLE3=Amor Perdido
TTITLE4=Desvelo de amor
TTITLE5=Negra Consentida
TTITLE6=Somos Diferentes
TTITLE7=Los Dos
TTITLE8=Peregrina
TTITLE9=Mi Dicha Lejana
TTITLE10=Comprendeme
TTITLE11=El Tiempo que te quede Libre
TTITLE12=El Reloj
TTITLE13=Delirio
TTITLE14=Usted
TTITLE15=La Media Vuelta
TTITLE16=Muriendo de Amor
TTITLE17=Para Ti
TTITLE18=La Cuenta Perdida
TTITLE19=Un Poco Mas
TTITLE20=El dia que me Quieras
TTITLE21=Maria Elena
TTITLE22=Tiempo
EXTD=Compilacion de Davila Bernal Francisco
EXTT0=Agustin Lara
EXTT1=Javier Solis
EXTT2=Hugo Avendaño
EXTT3=Maria Luis Landin
EXTT4=Virginia Lopez
EXTT5=Juan Arvizu
EXTT6=Lupe Y Raul
EXTT7=Los Panchos
EXTT8=Trova Yucateca
EXTT9=Genaro Salinas
EXTT10=Los Tecolines
EXTT11=Ma Dolores Pradera
EXTT12=Los 3 Diamantes
EXTT13=Marco A Muñiz
EXTT14=Los 3 Diamantes
EXTT15=Luis Miguel
EXTT16=Juan Gabriel
EXTT17=Grupo Enlace
EXTT18=Lola Beltran
EXTT19=Los 3 Ases
EXTT20=Alberto Cortez
EXTT21=Indios tabajaras
EXTT22=Jose Jose/Muñiz
PLAYORDER=
